<svg xmlns="http://www.w3.org/2000/svg" width="28.369" height="20.804" viewBox="0 0 28.369 20.804">
  <g id="bars-line" transform="translate(-3 -7)">
    <path id="Path_214" data-name="Path 214" d="M30.424,28.891H3.946a.946.946,0,1,1,0-1.891H30.424a.946.946,0,1,1,0,1.891Z" transform="translate(0 -1.087)" fill="#c09454"/>
    <path id="Path_215" data-name="Path 215" d="M30.424,18.891H3.946a.946.946,0,1,1,0-1.891H30.424a.946.946,0,1,1,0,1.891Z" transform="translate(0 -0.544)" fill="#c09454"/>
    <path id="Path_216" data-name="Path 216" d="M30.424,8.891H3.946A.946.946,0,0,1,3.946,7H30.424a.946.946,0,1,1,0,1.891Z" transform="translate(0 0)" fill="#c09454"/>
  </g>
</svg>
