<svg xmlns="http://www.w3.org/2000/svg" xmlns:xlink="http://www.w3.org/1999/xlink" width="26.103" height="34" viewBox="0 0 26.103 34">
  <defs>
    <linearGradient id="linear-gradient" x1="0.836" y1="0.205" x2="0.5" y2="1" gradientUnits="objectBoundingBox">
      <stop offset="0" stop-color="#c09454"/>
      <stop offset="1" stop-color="#6f6558"/>
    </linearGradient>
  </defs>
  <path id="cart-icon" d="M21.853,34H4.25A4.255,4.255,0,0,1,0,29.75L.9,8.5a4.255,4.255,0,0,1,4.25-4.25H6.676C6.676,1.907,9.536,0,13.051,0s6.376,1.906,6.376,4.25h1.523A4.255,4.255,0,0,1,25.2,8.5l.9,21.251A4.255,4.255,0,0,1,21.853,34ZM5.153,6.375A2.127,2.127,0,0,0,3.029,8.5l-.9,21.251A2.127,2.127,0,0,0,4.25,31.875h17.6a2.127,2.127,0,0,0,2.124-2.126l-.9-21.25a2.127,2.127,0,0,0-2.125-2.125H19.427V9.884a1.063,1.063,0,0,1-.087,2.122H17.388A1.063,1.063,0,0,1,17.3,9.884V6.375H8.8V9.884a1.063,1.063,0,0,1-.086,2.122H6.764a1.063,1.063,0,0,1-.087-2.122V6.375Zm7.9-4.25C10.39,2.125,8.8,2.919,8.8,4.25h8.5a1.754,1.754,0,0,0-1.127-1.561A7.222,7.222,0,0,0,13.052,2.125Z" fill="url(#linear-gradient)"/>
</svg>
