<svg xmlns="http://www.w3.org/2000/svg" xmlns:xlink="http://www.w3.org/1999/xlink" width="308" height="34.949" viewBox="0 0 308 34.949">
  <defs>
    <linearGradient id="linear-gradient" x1="0.923" y1="-0.033" x2="0.077" y2="0.807" gradientUnits="objectBoundingBox">
      <stop offset="0" stop-color="#ffebb5"/>
      <stop offset="0.255" stop-color="#feeab3"/>
      <stop offset="0.347" stop-color="#fbe5ac"/>
      <stop offset="0.412" stop-color="#f6dea1"/>
      <stop offset="0.465" stop-color="#efd390"/>
      <stop offset="0.51" stop-color="#e6c57a"/>
      <stop offset="0.549" stop-color="#dbb45f"/>
      <stop offset="0.555" stop-color="#d9b15b"/>
      <stop offset="0.566" stop-color="#d6ac57"/>
      <stop offset="0.615" stop-color="#cc9b4a"/>
      <stop offset="0.676" stop-color="#c49040"/>
      <stop offset="0.762" stop-color="#c0893b"/>
      <stop offset="1" stop-color="#bf8739"/>
    </linearGradient>
  </defs>
  <g id="divider" transform="translate(0 7.324)">
    <g id="Group_2" data-name="Group 2" transform="translate(0 10.5)">
      <path id="Line" d="M.5.5h118" transform="translate(0 0.5)" fill="none" stroke="#c09454" stroke-linecap="square" stroke-miterlimit="10" stroke-width="1"/>
      <path id="Line_Copy" data-name="Line Copy" d="M.5.5h118" transform="translate(189 0.5)" fill="none" stroke="#c09454" stroke-linecap="square" stroke-miterlimit="10" stroke-width="1"/>
      <path id="Path" d="M0,0H22.952S27.27,11.25,46.883,11.25,69.188,0,69.188,0H93.766" transform="translate(107.74 5.375)" fill="none" stroke="#c09454" stroke-miterlimit="10" stroke-width="1"/>
    </g>
    <path id="Path_297" data-name="Path 297" d="M908.62,290.662l1.028.022-.819.622.3.984-.844-.586-.844.586.3-.984-.819-.622,1.028-.022.338-.971Zm4.592-6.788H912.2v3.75h1.01V285.89l1.6,1.589,1.141,1.139V286.6l-.126-.126-1.6-1.589h1.742v-1.01Zm-4.931-11.037h-4.29v.71h-.728v.122s.15,4.139,1.941,6.691a5.521,5.521,0,0,0,2.529,1.93l0,.578c0,.053.057.094.126.094a.452.452,0,0,1,.225.059v.861a.449.449,0,0,1-.224.059c-.072,0-.131.043-.131.1v.29a.129.129,0,0,0,.106.115.292.292,0,0,1,.245.272c-.007.151-.18.269-.38.269h-.312c-.2,0-.338.154-.263.3a1.5,1.5,0,0,0,.327.413.687.687,0,0,1,.266.489c0,.328-.344.574-.738.749a.346.346,0,0,0-.231.3v.128a.334.334,0,0,1-.369.279h-.066a.211.211,0,0,0-.233.176v.561c0,.1.1.176.233.176h3.94a.211.211,0,0,0,.233-.176v-.561c0-.1-.1-.176-.233-.176h-.066c-.2,0-.369-.125-.369-.279v-.128a.346.346,0,0,0-.23-.3c-.4-.175-.738-.421-.738-.749a.689.689,0,0,1,.266-.489,1.5,1.5,0,0,0,.327-.413c.075-.142-.061-.3-.263-.3h-.312c-.2,0-.374-.117-.381-.269a.293.293,0,0,1,.245-.272.129.129,0,0,0,.106-.115v-.29c0-.054-.059-.1-.131-.1a.448.448,0,0,1-.224-.059v-.861a.445.445,0,0,1,.225-.059c.07,0,.126-.042.126-.094l0-.578a5.521,5.521,0,0,0,2.529-1.93c1.791-2.552,1.941-6.691,1.941-6.691v-.122h-.728v-.71Zm4.9,6.57c-.031.011-.06.023-.092.032l-.092.027-.107.031-.228.066a8.434,8.434,0,0,1-.7,1.22q-.109.155-.225.3.232.186.48.353.136.091.277.175l.574-.273a4.394,4.394,0,0,1-.378-.691h.032l-.015-.019.133-.068q.2-.107.4-.219l.05-.028.053-.03.115-.066c.038-.021.075-.047.112-.071s.073-.048.109-.073l.105-.079.052-.039.05-.042.1-.083.1-.088.047-.044.046-.046.091-.092.086-.1.043-.047.041-.05.082-.1.077-.1.038-.052.035-.054.07-.107.064-.111.032-.056c.01-.019.019-.038.029-.057l.057-.115c.018-.039.034-.079.051-.118l.025-.059c.008-.02.015-.04.022-.06l.044-.121c.013-.041.025-.082.037-.124s.025-.082.034-.125l.029-.126c.005-.022.009-.04.012-.059l.011-.056.047-.223q.1-.446.2-.891c.132-.594.262-1.188.376-1.785l.11-.575H913.99c-.025.273-.063.628-.123,1.037l.233,0h.236c.114,0,.229,0,.343,0-.044.394-.084.789-.123,1.184q-.044.454-.092.908l-.025.227-.007.057c0,.019,0,.038-.007.053l-.014.1a.961.961,0,0,1-.019.1c-.007.032-.014.064-.022.1l-.028.095c0,.016-.009.032-.015.047l-.017.046-.035.093-.041.09-.021.045-.024.044-.047.087-.054.084-.027.042-.03.04-.059.08-.065.075-.033.037-.035.035-.071.069-.077.063-.038.031-.041.028-.082.055-.085.05-.043.024c-.014.008-.029.014-.044.021l-.089.041A.952.952,0,0,1,913.181,279.407Zm5.51-9.7V290.3l-10.411,6.044L897.87,290.3V269.71h20.821Zm-1.279,1.279H899.149v18.577l9.131,5.3,9.131-5.3ZM903.35,283.874h-2.756v1.01h1.742l-1.6,1.589-.126.126v2.018l1.141-1.139,1.6-1.589v1.734h1.01v-3.75Zm.548-4.312-.228-.066-.107-.031-.093-.027c-.031-.008-.061-.02-.092-.032s-.061-.022-.091-.035l-.089-.041-.044-.021-.043-.024-.085-.05-.082-.055-.041-.028-.038-.031-.077-.063-.071-.069-.035-.035-.033-.037-.065-.075-.059-.08-.029-.04-.027-.042-.054-.084-.047-.087-.024-.044-.021-.045-.041-.09-.035-.093-.017-.046c-.006-.016-.01-.032-.015-.047l-.028-.1c-.008-.032-.014-.064-.022-.1a.9.9,0,0,1-.019-.1l-.014-.1c0-.015,0-.035-.007-.053l-.007-.056-.025-.227q-.047-.454-.091-.908c-.039-.4-.078-.79-.123-1.184.115,0,.229,0,.343,0h.236l.233,0c-.06-.41-.1-.764-.123-1.037h-1.924l.11.575c.114.6.244,1.191.376,1.785q.1.445.2.891l.047.223.011.056c0,.019.007.037.013.059l.029.126c.009.042.022.083.034.125s.024.083.037.124l.044.121c.007.02.014.041.022.06l.025.059.051.118.057.115c.01.019.019.038.029.058l.032.056.064.111.07.107.035.054.038.052.077.1.082.1.041.05.043.047.086.1.091.091.046.046.047.044.1.088.1.083.05.042c.017.014.035.026.052.039l.105.079c.036.026.073.048.109.073s.073.05.112.071l.115.067.053.03.05.028q.2.112.4.219l.133.068-.015.019h.032a4.4,4.4,0,0,1-.378.691l.574.273c.095-.056.187-.115.277-.175.166-.111.326-.229.48-.353-.077-.095-.152-.194-.225-.3A8.693,8.693,0,0,1,903.9,279.563Z" transform="translate(-754.28 -277.034)" fill="url(#linear-gradient)"/>
  </g>
</svg>
