<svg xmlns="http://www.w3.org/2000/svg" width="38" height="38" viewBox="0 0 38 38">
  <g id="instagram" transform="translate(23303 14862)">
    <rect id="Rectangle_1195" data-name="Rectangle 1195" width="38" height="38" transform="translate(-23303 -14862)" fill="#515bd4"/>
    <path id="instagram-filled" d="M7.14,6.049A1.163,1.163,0,1,0,5.977,7.207,1.162,1.162,0,0,0,7.14,6.049ZM8.868.022h-5.9A2.946,2.946,0,0,0,.016,2.958v.818h4.34a2.8,2.8,0,0,1,3.242,0h4.219V2.958A2.946,2.946,0,0,0,8.868.022Zm1.194,2.793a.328.328,0,0,1-.328.326H8.722a.328.328,0,0,1-.328-.326V1.806a.328.328,0,0,1,.328-.326H9.734a.328.328,0,0,1,.328.326ZM8.778,6.049a2.8,2.8,0,0,1-5.6,0,2.762,2.762,0,0,1,.266-1.185H.016V8.883a2.946,2.946,0,0,0,2.949,2.936h5.9a2.946,2.946,0,0,0,2.949-2.936V4.864h-3.3a2.763,2.763,0,0,1,.266,1.185Z" transform="translate(-23290.016 -14849.022)" fill="#fff"/>
  </g>
</svg>
