<svg id="logo-icon" xmlns="http://www.w3.org/2000/svg" xmlns:xlink="http://www.w3.org/1999/xlink" width="54.553" height="69.789" viewBox="0 0 54.553 69.789">
  <defs>
    <linearGradient id="linear-gradient" x1="0.923" y1="-0.033" x2="0.077" y2="0.807" gradientUnits="objectBoundingBox">
      <stop offset="0" stop-color="#ffebb5"/>
      <stop offset="0.255" stop-color="#feeab3"/>
      <stop offset="0.347" stop-color="#fbe5ac"/>
      <stop offset="0.412" stop-color="#f6dea1"/>
      <stop offset="0.465" stop-color="#efd390"/>
      <stop offset="0.51" stop-color="#e6c57a"/>
      <stop offset="0.549" stop-color="#dbb45f"/>
      <stop offset="0.555" stop-color="#d9b15b"/>
      <stop offset="0.566" stop-color="#d6ac57"/>
      <stop offset="0.615" stop-color="#cc9b4a"/>
      <stop offset="0.676" stop-color="#c49040"/>
      <stop offset="0.762" stop-color="#c0893b"/>
      <stop offset="1" stop-color="#bf8739"/>
    </linearGradient>
  </defs>
  <path id="Path_297" data-name="Path 297" d="M926.034,324.606l2.693.057-2.145,1.629.778,2.579-2.212-1.537-2.212,1.537.778-2.579-2.145-1.629,2.693-.057.886-2.544Zm12.03-17.785h-2.646v9.824h2.646V312.1l4.182,4.162,2.99,2.983v-5.288l-.331-.33-4.182-4.162h4.563v-2.646ZM925.146,277.9H913.907v1.861H912v.321s.392,10.844,5.085,17.529a14.467,14.467,0,0,0,6.627,5.056l-.006,1.514c0,.138.148.247.331.247a1.185,1.185,0,0,1,.59.154v2.255a1.175,1.175,0,0,1-.588.154c-.189,0-.344.113-.344.255v.759a.338.338,0,0,0,.278.3.766.766,0,0,1,.641.713c-.018.4-.471.7-1,.7H922.8c-.529,0-.886.4-.69.775a3.935,3.935,0,0,0,.856,1.082,1.8,1.8,0,0,1,.7,1.28c0,.858-.9,1.5-1.934,1.962a.906.906,0,0,0-.6.788v.334a.874.874,0,0,1-.967.73h-.172a.553.553,0,0,0-.611.461v1.47c0,.255.274.461.611.461h10.323a.553.553,0,0,0,.611-.461v-1.47c0-.255-.274-.461-.611-.461h-.173a.874.874,0,0,1-.967-.73v-.334a.908.908,0,0,0-.6-.788c-1.035-.459-1.934-1.1-1.934-1.962a1.8,1.8,0,0,1,.7-1.28,3.931,3.931,0,0,0,.856-1.082c.2-.371-.161-.775-.69-.775h-.816c-.526,0-.979-.307-1-.7a.766.766,0,0,1,.641-.713.337.337,0,0,0,.278-.3v-.759c0-.143-.155-.254-.344-.255a1.175,1.175,0,0,1-.588-.154v-2.255a1.167,1.167,0,0,1,.59-.154c.182,0,.331-.11.331-.247l-.006-1.514a14.467,14.467,0,0,0,6.627-5.056c4.692-6.686,5.085-17.529,5.085-17.529v-.321h-1.906V277.9Zm12.84,17.213c-.08.029-.158.061-.241.083l-.242.072-.28.08q-.3.084-.6.173a22.133,22.133,0,0,1-1.845,3.2q-.286.407-.589.78.608.486,1.259.924.356.238.727.46l1.5-.717a11.52,11.52,0,0,1-.99-1.81l.084,0-.04-.049q.176-.087.349-.178c.353-.186.706-.377,1.054-.573l.131-.073.139-.078.3-.174c.1-.055.2-.123.292-.186s.193-.125.286-.193l.275-.206c.045-.035.093-.067.136-.1l.131-.11.262-.218.25-.231c.042-.038.084-.075.124-.114l.119-.121.238-.24.225-.251.113-.124.106-.13.214-.259.2-.27.1-.135.093-.141.183-.282.169-.291.083-.146c.026-.05.05-.1.075-.151l.15-.3c.046-.1.089-.206.133-.31l.066-.155c.022-.052.039-.105.058-.158l.114-.318c.035-.107.065-.216.1-.324s.065-.216.088-.327l.076-.331c.014-.058.023-.105.033-.153l.03-.146.123-.585q.252-1.169.514-2.335c.347-1.556.687-3.113.986-4.677l.288-1.507H940.1c-.064.716-.166,1.645-.322,2.718l.609.005h.618c.3,0,.6,0,.9-.009-.116,1.033-.221,2.068-.322,3.1q-.114,1.191-.24,2.378l-.065.594-.017.148c-.005.05-.012.1-.018.14l-.037.255a2.41,2.41,0,0,1-.049.253c-.019.084-.035.169-.057.252l-.073.249c-.013.041-.024.084-.038.124l-.045.122-.091.243-.108.236c-.018.039-.035.079-.054.118l-.062.114-.123.229-.141.22-.07.11-.077.105-.154.211-.17.2-.085.1-.093.092-.187.181c-.066.056-.133.111-.2.165l-.1.082c-.035.025-.071.05-.106.074l-.214.145c-.074.044-.148.088-.223.13l-.112.063c-.037.021-.077.037-.116.056-.077.037-.155.072-.232.108A2.441,2.441,0,0,1,937.986,295.117Zm14.436-25.407v53.953L925.146,339.5,897.87,323.662V269.71h54.553Zm-3.352,3.351H901.222v48.672l23.924,13.89,23.924-13.89V273.061Zm-36.842,33.76h-7.222v2.646h4.563l-4.182,4.162-.331.33v5.288l2.99-2.983,4.182-4.162v4.543h2.647v-9.824Zm1.437-11.3c-.2-.059-.4-.117-.6-.173l-.28-.08-.242-.072c-.083-.022-.161-.054-.241-.083s-.16-.058-.239-.092-.155-.071-.232-.108c-.038-.019-.078-.035-.116-.056l-.112-.063c-.075-.042-.15-.085-.223-.13l-.214-.145c-.035-.025-.072-.049-.106-.074l-.1-.082c-.067-.054-.134-.109-.2-.165l-.187-.181-.093-.092-.085-.1-.17-.2-.153-.211-.077-.105-.07-.11-.141-.22-.124-.229-.062-.114c-.019-.039-.036-.079-.055-.118l-.108-.236-.091-.243-.045-.122c-.015-.041-.025-.083-.038-.124l-.073-.249c-.022-.084-.037-.169-.057-.252a2.4,2.4,0,0,1-.049-.253l-.037-.255c-.006-.04-.012-.091-.018-.14l-.017-.148-.065-.594q-.124-1.189-.24-2.378c-.1-1.035-.205-2.071-.322-3.1.3,0,.6.009.9.009h.618l.609-.005c-.157-1.073-.258-2-.322-2.718h-5.04l.288,1.507c.3,1.564.639,3.12.986,4.677q.263,1.166.514,2.335l.123.585.03.146c.01.049.019.1.033.153l.076.331c.024.111.056.219.088.327s.062.217.1.324l.114.318c.019.053.036.106.058.158l.066.155c.045.1.088.207.134.31l.15.3c.025.05.049.1.075.151l.083.146.169.291.183.282.093.141.1.135.2.27.214.259.106.13.113.124.225.251.238.24.119.121c.041.039.083.076.124.114l.25.231.262.218.131.11c.044.036.091.069.136.1l.275.206c.094.067.191.127.286.193s.192.13.292.186l.3.174.139.078.131.073q.524.294,1.054.573c.116.061.232.119.349.178l-.04.049.084,0a11.515,11.515,0,0,1-.99,1.81l1.5.716q.372-.222.727-.46c.435-.292.854-.6,1.259-.924-.2-.249-.4-.509-.588-.78A22.752,22.752,0,0,1,913.665,295.524Z" transform="translate(-897.87 -269.71)" fill="url(#linear-gradient)"/>
</svg>
