<svg id="logo" xmlns="http://www.w3.org/2000/svg" xmlns:xlink="http://www.w3.org/1999/xlink" width="238.995" height="76.766" viewBox="0 0 238.995 76.766">
  <defs>
    <linearGradient id="linear-gradient" x1="0.923" y1="-0.033" x2="0.077" y2="0.807" gradientUnits="objectBoundingBox">
      <stop offset="0" stop-color="#ffebb5"/>
      <stop offset="0.255" stop-color="#feeab3"/>
      <stop offset="0.347" stop-color="#fbe5ac"/>
      <stop offset="0.412" stop-color="#f6dea1"/>
      <stop offset="0.465" stop-color="#efd390"/>
      <stop offset="0.51" stop-color="#e6c57a"/>
      <stop offset="0.549" stop-color="#dbb45f"/>
      <stop offset="0.555" stop-color="#d9b15b"/>
      <stop offset="0.566" stop-color="#d6ac57"/>
      <stop offset="0.615" stop-color="#cc9b4a"/>
      <stop offset="0.676" stop-color="#c49040"/>
      <stop offset="0.762" stop-color="#c0893b"/>
      <stop offset="1" stop-color="#bf8739"/>
    </linearGradient>
    <linearGradient id="linear-gradient-2" x1="0.5" x2="0.5" y2="1" gradientUnits="objectBoundingBox">
      <stop offset="0" stop-color="#ffebb5"/>
      <stop offset="0.23" stop-color="#feeab3"/>
      <stop offset="0.346" stop-color="#fbe5ab"/>
      <stop offset="0.435" stop-color="#f5dc9e"/>
      <stop offset="0.512" stop-color="#edd08b"/>
      <stop offset="0.58" stop-color="#e3c073"/>
      <stop offset="0.631" stop-color="#d9b15b"/>
      <stop offset="0.685" stop-color="#d0a34f"/>
      <stop offset="0.768" stop-color="#c69343"/>
      <stop offset="0.864" stop-color="#c18a3b"/>
      <stop offset="1" stop-color="#bf8739"/>
    </linearGradient>
  </defs>
  <g id="dark">
    <path id="fav" d="M399.669,615.094l2.963.063-2.359,1.792.856,2.836-2.434-1.691-2.434,1.691.856-2.836-2.359-1.792,2.963-.063.976-2.8ZM412.9,595.532h-2.911v10.806H412.9v-5l4.6,4.579,3.289,3.281v-5.816l-.363-.362-4.6-4.579h5.02v-2.911H412.9Zm-14.209-31.808H386.33v2.046h-2.1v.353s.431,11.928,5.593,19.282a15.911,15.911,0,0,0,7.289,5.56l-.007,1.665c0,.151.162.272.364.272a1.309,1.309,0,0,1,.649.17v2.48a1.279,1.279,0,0,1-.647.17c-.208,0-.379.124-.379.28v.835a.37.37,0,0,0,.306.332.844.844,0,0,1,.705.784c-.02.437-.519.774-1.1.774h-.9c-.582,0-.976.444-.76.853a4.331,4.331,0,0,0,.943,1.191,1.976,1.976,0,0,1,.766,1.408c0,.944-.99,1.654-2.128,2.156a1,1,0,0,0-.664.866v.368c0,.444-.477.8-1.065.8h-.19c-.372,0-.672.227-.672.507V608.5c0,.28.3.507.672.507h11.356c.372,0,.672-.227.672-.507V606.88c0-.28-.3-.507-.672-.507h-.19c-.588,0-1.065-.359-1.065-.8V605.2a1,1,0,0,0-.664-.866c-1.138-.5-2.128-1.214-2.128-2.156a1.982,1.982,0,0,1,.766-1.408,4.33,4.33,0,0,0,.943-1.191c.216-.408-.177-.853-.76-.853h-.9c-.579,0-1.076-.338-1.1-.774a.842.842,0,0,1,.705-.784.371.371,0,0,0,.306-.332V596c0-.157-.171-.28-.379-.28a1.3,1.3,0,0,1-.646-.17v-2.48a1.29,1.29,0,0,1,.649-.17c.2,0,.363-.121.363-.272l-.007-1.665a15.912,15.912,0,0,0,7.289-5.56c5.161-7.353,5.593-19.282,5.593-19.282v-.353h-2.1v-2.046Zm14.123,18.933c-.088.032-.174.068-.264.091l-.267.079-.307.088c-.22.062-.438.125-.657.19a24.318,24.318,0,0,1-2.03,3.516q-.315.448-.647.859c.445.356.907.7,1.385,1.017.261.175.527.343.8.506l1.652-.787a12.732,12.732,0,0,1-1.089-1.991l.092,0-.043-.053c.128-.065.257-.129.384-.2q.584-.306,1.159-.629l.144-.081.154-.086.332-.191c.111-.062.216-.135.322-.2s.213-.138.315-.211l.3-.227c.05-.037.1-.073.149-.114l.144-.121.287-.24.274-.254c.046-.042.092-.083.136-.126l.131-.132.262-.263.249-.276.125-.137.118-.144.236-.284.221-.3.111-.148.1-.155.2-.31.185-.32.092-.161c.029-.055.056-.111.083-.165l.165-.332c.05-.112.1-.227.148-.341l.073-.171c.023-.057.043-.116.063-.174l.126-.349c.039-.118.072-.237.106-.356s.07-.238.1-.359l.083-.363c.014-.063.026-.116.036-.17l.033-.161.135-.644q.278-1.284.565-2.569c.382-1.711.756-3.424,1.085-5.144l.316-1.657h-5.543c-.07.787-.182,1.809-.355,2.99l.669.006h.68c.329,0,.659,0,.988-.01-.128,1.136-.243,2.274-.355,3.414q-.125,1.31-.263,2.616l-.072.654-.019.164c-.006.055-.013.111-.02.154l-.04.282a2.59,2.59,0,0,1-.055.279c-.022.092-.039.185-.063.277l-.08.273c-.014.046-.026.092-.042.137l-.05.134-.1.267-.119.26c-.02.043-.039.088-.06.129l-.068.126-.136.253-.155.241-.078.121-.085.115-.17.231-.187.217-.095.108-.1.1-.205.2-.22.182-.111.091c-.039.029-.078.055-.116.082l-.236.159q-.123.073-.246.142l-.124.069c-.042.023-.085.042-.128.062-.085.042-.171.079-.256.119S412.9,582.624,412.816,582.657ZM428.7,554.71v59.347l-30,17.419-30-17.419V554.71H428.7Zm-3.688,3.687H372.377v53.537l26.317,15.278,26.315-15.278Zm-40.526,37.135h-7.945v2.911h5.02l-4.6,4.579-.363.362V609.2l3.289-3.282,4.6-4.579v5h2.911v-10.8Zm1.58-12.426q-.328-.1-.657-.19l-.307-.088-.267-.079c-.091-.023-.177-.059-.264-.091s-.177-.065-.263-.1-.171-.078-.256-.119c-.042-.02-.086-.039-.128-.062l-.124-.069q-.125-.069-.246-.142l-.236-.159c-.039-.027-.079-.053-.116-.082l-.111-.091c-.073-.06-.148-.121-.22-.182l-.205-.2-.1-.1-.095-.108-.187-.217-.17-.231-.085-.115-.078-.121-.155-.241-.136-.253-.068-.126c-.022-.043-.04-.086-.06-.129l-.119-.26-.1-.267-.05-.134c-.016-.045-.027-.091-.042-.136l-.08-.273c-.024-.092-.042-.185-.063-.277a2.581,2.581,0,0,1-.055-.279l-.04-.282c-.007-.043-.013-.1-.02-.154l-.019-.164-.072-.654q-.138-1.308-.263-2.616c-.112-1.139-.226-2.277-.355-3.414.329,0,.659.01.988.01h.68l.669-.006c-.172-1.181-.284-2.2-.355-2.99h-5.539l.316,1.657c.329,1.72.7,3.432,1.085,5.143q.289,1.282.565,2.569l.135.644.033.161c.012.053.022.1.036.17l.083.363c.026.122.062.24.1.359s.068.238.106.356l.126.349c.022.057.04.116.063.174l.073.171c.049.113.1.227.148.341l.165.332c.027.055.055.111.083.165l.092.161.185.32.2.31.1.155.111.148.221.3.236.284.118.144.125.137.249.276.262.263.131.132c.045.043.092.083.137.126l.274.254.287.24.144.121c.049.04.1.076.149.114l.3.227c.1.073.21.139.315.211s.21.144.322.2l.332.191.154.086.144.081c.384.215.772.425,1.159.629l.384.2-.043.053.092,0a12.733,12.733,0,0,1-1.089,1.991l1.652.787c.273-.162.539-.33.8-.506.478-.32.938-.661,1.385-1.017-.221-.274-.438-.56-.647-.859A24.357,24.357,0,0,1,386.063,583.105Z" transform="translate(-368.69 -554.71)" fill="url(#linear-gradient)"/>
    <g id="Group_2256" data-name="Group 2256" transform="translate(70.095 11.63)">
      <g id="Group_2255" data-name="Group 2255">
        <path id="Path_286" data-name="Path 286" d="M863.206,655.973h-6.635v-.751a7.543,7.543,0,0,1,2.073-.622v-15.37a9.191,9.191,0,0,1-1.037-.272c-.346-.112-.691-.237-1.037-.376v-.751H863.2v.751a9.071,9.071,0,0,1-1.011.376,10.328,10.328,0,0,1-1.063.272V654.6c.364.069.726.155,1.089.259a6.381,6.381,0,0,1,.985.363v.751Z" transform="translate(-856.57 -637.518)" fill="#fff"/>
        <path id="Path_287" data-name="Path 287" d="M928.872,637.821h5.6v.751a8.032,8.032,0,0,1-2.125,1.037v16.666h-1.477L921.46,642l-1.011-2.023h-.078l.233,2.021V654.3a6.76,6.76,0,0,1,2,.907v.751H917v-.751a7.3,7.3,0,0,1,1-.506q.53-.22,1.128-.4v-14.85c-.346-.138-.687-.284-1.024-.441s-.652-.31-.945-.467v-.726h4.381l8.165,12.311,1.192,2.228h.1l-.129-2.228V639.609c-.363-.155-.713-.319-1.05-.493a10.328,10.328,0,0,1-.945-.544v-.75Z" transform="translate(-908.318 -637.51)" fill="#fff"/>
        <path id="Path_288" data-name="Path 288" d="M1103.676,655.973h-6.635v-.751a7.543,7.543,0,0,1,2.073-.622v-15.37a9.2,9.2,0,0,1-1.037-.272c-.346-.112-.691-.237-1.037-.376v-.751h6.635v.751a9.066,9.066,0,0,1-1.011.376,10.32,10.32,0,0,1-1.063.272V654.6c.363.069.726.155,1.089.259a6.378,6.378,0,0,1,.986.363v.751Z" transform="translate(-1062.491 -637.518)" fill="#fff"/>
        <path id="Path_289" data-name="Path 289" d="M1166.869,655.973h-7.283v-.751q.569-.207,1.154-.363A11.945,11.945,0,0,1,1162,654.6V639.178h-3.965l-1.374,3.707h-.648q-.078-.517-.129-1.18c-.035-.441-.065-.889-.091-1.348s-.047-.907-.065-1.348-.026-.833-.026-1.18h15.058c0,.346-.009.734-.026,1.167s-.039.878-.066,1.335-.053.907-.079,1.348-.066.842-.118,1.205h-.681l-1.364-3.707h-3.939V654.6c.45.086.868.172,1.257.259a6.255,6.255,0,0,1,1.128.363v.751Z" transform="translate(-1112.723 -637.518)" fill="#fff"/>
        <path id="Path_290" data-name="Path 290" d="M1319.308,641.026h-.648q-.284-.752-.583-1.763t-.506-1.918a6.853,6.853,0,0,1,2.177-1.231,8.127,8.127,0,0,1,2.747-.454,6.122,6.122,0,0,1,2.228.364,4.3,4.3,0,0,1,1.542.984,3.849,3.849,0,0,1,.894,1.438,5.128,5.128,0,0,1,.284,1.7,7.361,7.361,0,0,1-.674,2.981,17.841,17.841,0,0,1-1.672,2.968,25.461,25.461,0,0,1-2.164,2.708q-1.166,1.269-2.151,2.228l-1.089,1.011v.1l1.451-.155h4.458l1.27-2.9h.648c.035.381.069.795.1,1.244s.064.9.09,1.361.047.9.065,1.322.026.79.026,1.1H1317.1v-.829l1.387-1.451q.817-.856,1.7-1.892t1.75-2.2a21.431,21.431,0,0,0,1.542-2.372,15.951,15.951,0,0,0,1.1-2.4,6.762,6.762,0,0,0,.428-2.281,5.13,5.13,0,0,0-.194-1.425,3.516,3.516,0,0,0-.583-1.18,2.689,2.689,0,0,0-2.228-1.075,5.276,5.276,0,0,0-.96.078,7.841,7.841,0,0,0-.906.233Z" transform="translate(-1250.934 -635.66)" fill="#fff"/>
        <path id="Path_291" data-name="Path 291" d="M1469.823,639.221a7.06,7.06,0,0,1-1.089-.246c-.364-.112-.743-.246-1.141-.4v-.751h5.806v.751a12.516,12.516,0,0,1-1.866.648l-4.329,16.744-1.608.31-4.172-14.1-4.095,13.79-1.58.31-4.587-17.055c-.346-.086-.682-.181-1.012-.285a8.859,8.859,0,0,1-.96-.363v-.751h6.74v.751c-.329.121-.665.237-1.011.35a11.163,11.163,0,0,1-1.115.3l2.566,10.445.57,3.369h.052l.907-3.421,3.5-11.793h.881l3.758,11.793.751,3.369h.052l.6-3.421Z" transform="translate(-1364.047 -637.51)" fill="#fff"/>
        <path id="Path_292" data-name="Path 292" d="M1633.346,655.973h-6.635v-.751a7.543,7.543,0,0,1,2.073-.622v-15.37a9.187,9.187,0,0,1-1.037-.272c-.346-.112-.691-.237-1.037-.376v-.751h6.635v.751a9.075,9.075,0,0,1-1.011.376,10.32,10.32,0,0,1-1.063.272V654.6c.364.069.726.155,1.089.259a6.381,6.381,0,0,1,.985.363v.751Z" transform="translate(-1516.062 -637.518)" fill="#fff"/>
        <path id="Path_293" data-name="Path 293" d="M1699.012,637.821h5.6v.751a8.031,8.031,0,0,1-2.125,1.037v16.666h-1.477L1691.6,642l-1.011-2.021h-.078l.233,2.021v12.311a6.762,6.762,0,0,1,2,.907v.751h-5.6v-.751a7.3,7.3,0,0,1,1-.506q.53-.22,1.128-.4V639.454c-.346-.138-.687-.284-1.024-.441s-.652-.31-.947-.467v-.726h4.381l8.165,12.311,1.192,2.228h.1l-.129-2.228V639.609c-.363-.155-.712-.319-1.05-.493a10.541,10.541,0,0,1-.947-.544v-.75Z" transform="translate(-1567.81 -637.51)" fill="#fff"/>
        <path id="Path_294" data-name="Path 294" d="M1873.816,655.973h-6.635v-.751a7.543,7.543,0,0,1,2.073-.622v-15.37a9.187,9.187,0,0,1-1.037-.272c-.346-.112-.691-.237-1.037-.376v-.751h6.635v.751a9.078,9.078,0,0,1-1.011.376,10.312,10.312,0,0,1-1.063.272V654.6c.364.069.726.155,1.089.259a6.381,6.381,0,0,1,.985.363v.751Z" transform="translate(-1721.983 -637.518)" fill="#fff"/>
        <path id="Path_295" data-name="Path 295" d="M1937,655.973h-7.283v-.751q.569-.207,1.154-.363a11.961,11.961,0,0,1,1.257-.259V639.178h-3.965l-1.374,3.707h-.648q-.078-.517-.129-1.18c-.035-.441-.065-.889-.091-1.348s-.047-.907-.065-1.348-.026-.833-.026-1.18h15.06c0,.346-.009.734-.026,1.167s-.039.878-.066,1.335-.053.907-.079,1.348-.066.842-.118,1.205h-.681l-1.364-3.707h-3.939V654.6c.45.086.868.172,1.257.259a6.253,6.253,0,0,1,1.128.363v.751Z" transform="translate(-1772.206 -637.518)" fill="#fff"/>
      </g>
      <path id="Path_296" data-name="Path 296" d="M857.755,803.167v2.379a4.806,4.806,0,0,0,.678,2.754,2.191,2.191,0,0,0,1.915.984,2.4,2.4,0,0,0,1.876-.648,3.648,3.648,0,0,0,.694-2.158h.885a4.114,4.114,0,0,1-1.007,2.743,3.337,3.337,0,0,1-2.448.874,3.024,3.024,0,0,1-2.54-1.217,5.346,5.346,0,0,1-.938-3.307V803.16a5.134,5.134,0,0,1,.95-3.287,3.144,3.144,0,0,1,2.6-1.19,3.182,3.182,0,0,1,2.411.892,4.265,4.265,0,0,1,.977,2.738h-.885a3.625,3.625,0,0,0-.713-2.158,2.636,2.636,0,0,0-3.748.29A4.462,4.462,0,0,0,857.755,803.167Zm20.881-3.294a5.259,5.259,0,0,1,.945,3.349v2.372a5.2,5.2,0,0,1-.943,3.326,3.561,3.561,0,0,1-5.287,0,5.132,5.132,0,0,1-.966-3.3V803.2a5.177,5.177,0,0,1,.954-3.329,3.545,3.545,0,0,1,5.3,0Zm.069,3.31a4.469,4.469,0,0,0-.7-2.738,2.675,2.675,0,0,0-4.013-.019,4.291,4.291,0,0,0-.733,2.681v2.487a4.394,4.394,0,0,0,.724,2.75,2.418,2.418,0,0,0,2.014.92,2.368,2.368,0,0,0,2.017-.915,4.555,4.555,0,0,0,.69-2.754v-2.411Zm14.436,5.424-3.363-9.771h-1.152v11.106h.869V805.1l-.076-4.767,3.386,9.61h.671l3.4-9.656-.076,4.843v4.813h.869V798.835h-1.152Zm19.426-8.886a3.958,3.958,0,0,1,.026,4.859,3.135,3.135,0,0,1-2.361.846h-2.342v4.516h-.869V798.835h3.227A3.056,3.056,0,0,1,912.568,799.72Zm-.023,2.448a2.642,2.642,0,0,0-.606-1.838,2.154,2.154,0,0,0-1.682-.671h-2.365v4.951h2.358a2.218,2.218,0,0,0,1.7-.636A2.54,2.54,0,0,0,912.545,802.168Zm10.485,2.457h4.31v-.809h-4.31v-4.158h4.919v-.823h-5.79v11.106h5.827v-.809h-4.958v-4.507Zm12.933-4.967h3.151v10.283h.878V799.658h3.158v-.823h-7.185v.823Zm15.849,10.283h.869V798.835h-.869Zm9.319-10.283h3.151v10.283h.878V799.658h3.158v-.823h-7.185v.823Zm15.847,10.283h.869V798.835h-.869Zm16.313-10.069a5.258,5.258,0,0,1,.945,3.349v2.372a5.2,5.2,0,0,1-.943,3.326,3.561,3.561,0,0,1-5.287,0,5.132,5.132,0,0,1-.965-3.3V803.2a5.177,5.177,0,0,1,.954-3.329,3.545,3.545,0,0,1,5.3,0Zm.069,3.31a4.469,4.469,0,0,0-.7-2.738,2.675,2.675,0,0,0-4.013-.019,4.291,4.291,0,0,0-.733,2.681v2.487a4.394,4.394,0,0,0,.724,2.75,2.418,2.418,0,0,0,2.014.92,2.368,2.368,0,0,0,2.017-.915,4.555,4.555,0,0,0,.69-2.754v-2.411Zm16.047,5.126-5.248-9.474h-.878v11.106h.878v-9.458l5.24,9.458h.869V798.835h-.862v9.474Zm16.015-2.533a2.86,2.86,0,0,0-.945-1.049,7.591,7.591,0,0,0-1.892-.862,5.022,5.022,0,0,1-1.823-.95,1.8,1.8,0,0,1-.572-1.374,1.923,1.923,0,0,1,.606-1.468,2.327,2.327,0,0,1,1.659-.569,2.2,2.2,0,0,1,1.713.69,2.585,2.585,0,0,1,.629,1.812h.878a3.3,3.3,0,0,0-.9-2.4,3.085,3.085,0,0,0-2.319-.931,3.234,3.234,0,0,0-2.266.8,2.681,2.681,0,0,0-.878,2.075,2.629,2.629,0,0,0,.892,2.075,6.239,6.239,0,0,0,2.128,1.091,5.29,5.29,0,0,1,1.98,1.022,1.988,1.988,0,0,1,.53,1.464,1.919,1.919,0,0,1-.636,1.51,2.453,2.453,0,0,1-1.69.565,2.678,2.678,0,0,1-1.915-.671,2.42,2.42,0,0,1-.71-1.846h-.869a3.356,3.356,0,0,0,.454,1.773,2.988,2.988,0,0,0,1.259,1.152,3.94,3.94,0,0,0,1.782.4,3.341,3.341,0,0,0,2.33-.8,2.7,2.7,0,0,0,.881-2.1A3.13,3.13,0,0,0,1025.421,805.776Z" transform="translate(-856.827 -775.258)" fill="url(#linear-gradient-2)"/>
    </g>
  </g>
</svg>
