<svg xmlns="http://www.w3.org/2000/svg" width="55.57" height="54" viewBox="0 0 55.57 54">
  <path id="qout" d="M40.228,51.161a19.582,19.582,0,0,1-4.772-7.43,27.208,27.208,0,0,1-1.751-9.786,39.964,39.964,0,0,1,2.839-15.04A44.9,44.9,0,0,1,43.49,6.886,26.8,26.8,0,0,1,51.342,0h.121l4.108,3.866V5.557a28.451,28.451,0,0,0-5.678,7.913,27.241,27.241,0,0,0-2.658,12.624,15.44,15.44,0,0,0,1.087,6.282,28.8,28.8,0,0,0,3.262,5.315,24.162,24.162,0,0,1,2.658,3.987,9.1,9.1,0,0,1,.846,4.107,7.9,7.9,0,0,1-2.355,5.92A8.064,8.064,0,0,1,46.873,54,9.508,9.508,0,0,1,40.228,51.161Zm-33.645,0a19.225,19.225,0,0,1-4.832-7.43A27.227,27.227,0,0,1,0,33.946a39.964,39.964,0,0,1,2.839-15.04A43.892,43.892,0,0,1,9.785,6.946,29.074,29.074,0,0,1,17.637,0h.122l4.228,3.866V5.557a28.415,28.415,0,0,0-5.678,7.913,27.229,27.229,0,0,0-2.658,12.624,15.425,15.425,0,0,0,1.087,6.282A28.7,28.7,0,0,0,18,37.691a24.22,24.22,0,0,1,2.658,3.987,9.113,9.113,0,0,1,.846,4.107,7.9,7.9,0,0,1-2.356,5.92A8.064,8.064,0,0,1,13.289,54,9.718,9.718,0,0,1,6.584,51.161Z" fill="#a87a37"/>
</svg>
