<svg xmlns="http://www.w3.org/2000/svg" width="38" height="38" viewBox="0 0 38 38">
  <g id="twitter" transform="translate(23351 14862)">
    <rect id="Rectangle_1194" data-name="Rectangle 1194" width="38" height="38" transform="translate(-23351 -14862)" fill="#00acee"/>
    <path id="twitter-2" data-name="twitter" d="M7.646,18.026A8.579,8.579,0,0,0,16.28,9.392c0-.13,0-.26-.006-.39a6.182,6.182,0,0,0,1.515-1.576,6.15,6.15,0,0,1-1.745.48,3.053,3.053,0,0,0,1.337-1.681,6.036,6.036,0,0,1-1.93.735A3.034,3.034,0,0,0,10.2,9.036a3.353,3.353,0,0,0,.077.692A8.618,8.618,0,0,1,4.024,6.556a3.043,3.043,0,0,0,.941,4.054,3.069,3.069,0,0,1-1.373-.379v.041A3.042,3.042,0,0,0,6.024,13.25a2.959,2.959,0,0,1-.8.106,2.994,2.994,0,0,1-.569-.053A3.035,3.035,0,0,0,7.491,15.41a6.086,6.086,0,0,1-3.77,1.3A5.837,5.837,0,0,1,3,16.67a8.632,8.632,0,0,0,4.646,1.355" transform="translate(-23342 -14855)" fill="#fff"/>
  </g>
</svg>
